<?xml version="1.0" encoding="UTF-8"?>
<svg version="1.1" xmlns="http://www.w3.org/2000/svg" width="1984" height="2160">
<path d="M0 0 C654.72 0 1309.44 0 1984 0 C1984 712.8 1984 1425.6 1984 2160 C1329.28 2160 674.56 2160 0 2160 C0 1447.2 0 734.4 0 0 Z " fill="#F7EDE5" transform="translate(0,0)"/>
<path d="M0 0 C915.30737876 0 915.30737876 0 981.40716553 8.66143799 C984.04505311 9.00588286 986.68378095 9.34317887 989.32275391 9.67919922 C1024.54645151 14.1872629 1059.66710946 19.86933661 1094.17675781 28.32080078 C1098.07026718 29.25747867 1101.97867411 30.12200903 1105.88818359 30.98901367 C1113.69207331 32.72328536 1121.40734911 34.57731373 1129.0703125 36.8671875 C1132.15260294 37.77663524 1135.25329158 38.5884842 1138.3671875 39.3828125 C1157.57159506 44.31623885 1176.27801742 50.50120713 1195 57 C1195.70936707 57.24576782 1196.41873413 57.49153564 1197.14959717 57.74475098 C1230.74383066 69.40533334 1263.34603473 83.06151917 1295.11126709 99.05010986 C1296.94576513 99.97272395 1298.78241714 100.8909095 1300.61962891 101.80810547 C1317.88368139 110.4582282 1334.5336409 119.9312963 1351 130 C1352.31387695 130.80002441 1352.31387695 130.80002441 1353.65429688 131.61621094 C1379.3983578 147.35551947 1404.06453454 165.0847723 1427.17382812 184.47802734 C1429.67247365 186.56045465 1432.21266919 188.59000202 1434.75 190.625 C1439.41594998 194.43161977 1443.84483743 198.45899501 1448.23535156 202.57666016 C1451.01925044 205.18689931 1453.83874445 207.73477 1456.73144531 210.22436523 C1460.82520634 213.80006538 1464.69886647 217.55385764 1468.53515625 221.40234375 C1469.21750839 222.08373917 1469.89986053 222.76513458 1470.60289001 223.46717834 C1472.03344437 224.89705741 1473.46275767 226.32817911 1474.89086914 227.76049805 C1477.05699074 229.93197711 1479.22840174 232.09806325 1481.40039062 234.26367188 C1482.79979987 235.66374202 1484.19889884 237.06412238 1485.59765625 238.46484375 C1486.23639175 239.10155502 1486.87512726 239.7382663 1487.53321838 240.39427185 C1491.88578196 244.76916925 1495.97593334 249.32287921 1500 254 C1501.04551922 255.19129541 1502.09219519 256.38157782 1503.140625 257.5703125 C1509.86446193 265.24050678 1516.32047731 273.05509791 1522.54589844 281.13378906 C1524.06469317 283.08302798 1525.61137618 285.00735864 1527.1640625 286.9296875 C1541.91381578 305.32225781 1554.78952166 325.23900936 1566.61425781 345.61816406 C1568.00702694 348.01207801 1569.42041654 350.39292074 1570.8359375 352.7734375 C1598.56603472 399.85522455 1618.90086243 451.27229885 1633 504 C1633.27263672 505.00063477 1633.54527344 506.00126953 1633.82617188 507.03222656 C1641.19433186 534.13359897 1646.46789394 561.28493114 1650.19374084 589.09085083 C1650.72258669 593.0236771 1651.28671489 596.94765117 1651.90625 600.8671875 C1654.03972462 614.44536766 1654.96575987 628.04507877 1655.75048828 641.76293945 C1655.93039797 644.09701239 1656.19237988 646.42526604 1656.50552368 648.745224 C1656.99446958 652.61280102 1657.13936426 656.41189773 1657.16113281 660.31347656 C1657.16609772 660.9980896 1657.17106262 661.68270264 1657.17617798 662.38806152 C1657.19068852 664.63892679 1657.19759616 666.88972072 1657.203125 669.140625 C1657.20595238 669.92682976 1657.20877975 670.71303452 1657.21169281 671.52306366 C1657.22666812 675.71427232 1657.23589823 679.90544695 1657.24023438 684.09667969 C1657.24455102 687.48221014 1657.2581734 690.86747589 1657.28125 694.25292969 C1657.48679333 725.06756512 1655.84340757 755.49782737 1651.25 786 C1651.12471924 786.85413483 1650.99943848 787.70826965 1650.87036133 788.58828735 C1647.16569329 813.8016694 1642.54948001 838.83727117 1635.703125 863.40039062 C1635.00497828 865.98159418 1634.36852775 868.5705352 1633.75 871.171875 C1624.67735573 908.84096885 1609.68971358 945.14461178 1593 980 C1592.51418457 981.01690918 1592.02836914 982.03381836 1591.52783203 983.08154297 C1571.37078414 1025.0052393 1545.41821493 1064.5481679 1515.52636719 1100.16943359 C1513.42330176 1102.69163203 1511.37017503 1105.25322091 1509.3125 1107.8125 C1504.87072803 1113.2477182 1500.13864957 1118.39267201 1495.35888672 1123.52783203 C1494.10160778 1124.88992186 1492.86431922 1126.27039085 1491.62890625 1127.65234375 C1485.25077865 1134.76523165 1478.55774706 1141.55036924 1471.8125 1148.3125 C1471.33896088 1148.78862732 1470.86542175 1149.26475464 1470.37753296 1149.75531006 C1464.7603561 1155.39668054 1459.04735062 1160.82437085 1453 1166 C1451.39231627 1167.45445517 1449.78760285 1168.91220895 1448.1875 1170.375 C1442.93834825 1175.10561852 1437.50577537 1179.57267547 1432 1184 C1430.84364408 1184.93736935 1429.6873992 1185.8748757 1428.53125 1186.8125 C1362.83544742 1239.92732454 1288.54898743 1277.52379023 1209.21142578 1305.50952148 C1206.34050034 1306.52238318 1203.47516281 1307.54939622 1200.61279297 1308.58618164 C1192.15688947 1311.6358093 1183.7157881 1314.33132901 1175 1316.5625 C1172.73782791 1317.15452044 1170.47610743 1317.74826924 1168.21484375 1318.34375 C1167.14218262 1318.62605469 1166.06952148 1318.90835937 1164.96435547 1319.19921875 C1161.13520819 1320.23361202 1157.35107485 1321.39028889 1153.5625 1322.5625 C1142.95313222 1325.79028439 1132.07348317 1327.94748422 1121.2421875 1330.28564453 C1118.4133019 1330.90893664 1115.59635041 1331.5637618 1112.78125 1332.24609375 C1096.17107574 1336.2495884 1079.33753378 1339.00443144 1062.50128174 1341.86593628 C1058.58078964 1342.53681689 1054.68251248 1343.25081409 1050.79296875 1344.0859375 C1043.95326136 1345.49246043 1036.9962608 1346.1642828 1030.0625 1346.9375 C1029.30755249 1347.02270905 1028.55260498 1347.10791809 1027.77478027 1347.19570923 C996.93330653 1350.66442751 966.0615646 1353.34900634 935 1353 C938.06987634 1349.6514662 941.27060138 1347.46146248 945.1796875 1345.1640625 C945.78020935 1344.80829132 946.3807312 1344.45252014 946.99945068 1344.08596802 C948.28656575 1343.32375114 949.57514589 1342.56400378 950.86505127 1341.80651855 C954.27833167 1339.80007229 957.6778912 1337.77063953 961.078125 1335.7421875 C961.75843781 1335.33673706 962.43875061 1334.93128662 963.13967896 1334.5135498 C993.35896171 1316.47090992 1022.33673816 1296.07050545 1049 1273.0625 C1049.59248535 1272.55307861 1050.1849707 1272.04365723 1050.79541016 1271.51879883 C1055.0908352 1267.81386409 1059.32980187 1264.05048957 1063.5234375 1260.23046875 C1064.91094709 1258.98083472 1066.30455359 1257.73762651 1067.71925354 1256.51885986 C1072.59125923 1252.31854354 1077.2133467 1247.93342169 1081.75390625 1243.37890625 C1082.81072853 1242.32351906 1082.81072853 1242.32351906 1083.88890076 1241.24681091 C1085.36653367 1239.76985352 1086.84292457 1238.29165258 1088.31811523 1236.81225586 C1090.55666481 1234.56834915 1092.80050473 1232.32983296 1095.04492188 1230.09179688 C1096.48990404 1228.64615382 1097.93457592 1227.20020055 1099.37890625 1225.75390625 C1100.03951553 1225.0953212 1100.70012482 1224.43673615 1101.38075256 1223.75819397 C1105.78461988 1219.33244278 1109.93477146 1214.73733927 1114 1210 C1114.97325348 1208.88219841 1115.94709294 1207.76490634 1116.921875 1206.6484375 C1123.87283522 1198.62446144 1130.55212153 1190.43310314 1137 1182 C1137.56589844 1181.26007813 1138.13179687 1180.52015625 1138.71484375 1179.7578125 C1165.30318965 1144.87847702 1188.3183072 1108.20798809 1208 1069 C1208.48033691 1068.04867188 1208.96067383 1067.09734375 1209.45556641 1066.1171875 C1222.00078052 1041.12466445 1232.13205995 1015.20222405 1241.125 988.75 C1241.44287476 987.81556061 1241.76074951 986.88112122 1242.08825684 985.91836548 C1245.66984014 975.34780122 1249.05368565 964.76686109 1252 954 C1252.28472168 952.99001953 1252.56944336 951.98003906 1252.86279297 950.93945312 C1277.98904012 861.77526921 1283.90064716 768.338205 1267.25 607.9375 C1267.07902802 606.86380157 1266.90805603 605.79010315 1266.73190308 604.68386841 C1264.39377807 590.05850456 1261.89682712 575.47521419 1259.0625 560.9375 C1258.91325073 560.16743622 1258.76400146 559.39737244 1258.61022949 558.60397339 C1257.83405536 551.23348857 1257.83405536 551.23348857 1255 545 C1252.72860883 548.47880276 1250.45800117 551.95811631 1248.1875 555.4375 C1247.25260742 556.86932617 1247.25260742 556.86932617 1246.29882812 558.33007812 C1243.37409831 562.81270422 1240.45181933 567.29666849 1237.55004883 571.79418945 C1230.50463713 582.71311211 1223.3758318 593.57561872 1216.21948242 604.42211914 C1214.30372133 607.32580568 1212.3890801 610.23022819 1210.47460938 613.13476562 C1206.98654823 618.42547654 1203.49429634 623.71340568 1200 629 C1199.5541153 629.67532776 1199.10823059 630.35065552 1198.64883423 631.04644775 C1197.53063923 632.73913981 1196.40997387 634.43019927 1195.2890625 636.12109375 C1194.42015381 637.43291626 1194.42015381 637.43291626 1193.53369141 638.77124023 C1191.52018972 641.69726011 1189.39986221 644.3819685 1187 647 C1186.67 647 1186.34 647 1186 647 C1185.99413376 646.21328415 1185.98826752 645.4265683 1185.98222351 644.61601257 C1186.00632546 593.69911567 1186.00632546 593.69911567 1182 543 C1181.83329416 541.64569541 1181.6667955 540.29136531 1181.50048828 538.93701172 C1177.64121341 507.98805137 1171.65544955 476.97063014 1163 447 C1162.71721191 446.00387695 1162.43442383 445.00775391 1162.14306641 443.98144531 C1142.01970151 373.67455685 1105.04632345 307.47954732 1055.484375 253.73046875 C1053.54945729 251.60388466 1051.66700349 249.45261711 1049.79296875 247.2734375 C1045.58800098 242.45489116 1041.09386124 237.94726619 1036.5625 233.4375 C1035.35110352 232.22030273 1035.35110352 232.22030273 1034.11523438 230.97851562 C1029.2386972 226.1098375 1024.23030412 221.48360446 1019 217 C1017.84334382 215.97849352 1016.68835244 214.95509842 1015.53515625 213.9296875 C1006.3545042 205.8274895 996.83592524 198.28925932 987 191 C986.26346191 190.45311523 985.52692383 189.90623047 984.76806641 189.34277344 C929.07279585 148.14883391 863.61093138 115.80469695 796.42431641 98.63378906 C794.18152685 98.04745657 791.95559271 97.42319247 789.73046875 96.7734375 C765.36274655 89.66057304 740.39917285 84.94674041 715.41577148 80.60327148 C712.57899738 80.10225878 709.75350602 79.56431317 706.92578125 79.015625 C698.64996531 77.50627162 690.28589889 76.52547381 681.94506836 75.45043945 C678.99611602 75.07006075 676.04783168 74.68481949 673.09960938 74.29882812 C668.09793424 73.64695801 663.09440435 73.01116734 658.08932495 72.38598633 C656.02927327 72.12859942 653.96947725 71.86915806 651.90994263 71.60766602 C635.31434524 69.51470046 618.72654938 68.14635538 602.0324707 67.11962891 C598.06863301 66.87537792 594.10561751 66.62012906 590.14257812 66.36328125 C587.52347845 66.19726935 584.90433895 66.03188426 582.28515625 65.8671875 C581.14990005 65.79426483 580.01464386 65.72134216 578.84498596 65.64620972 C556.06551236 64.25963047 533.27354841 63.83231399 510.45703125 63.68359375 C507.73792405 63.6633919 505.01882664 63.64198867 502.29972839 63.62062073 C495.95764832 63.57144961 489.61554697 63.52624292 483.27342671 63.48259836 C476.03228515 63.43256362 468.7911806 63.37789947 461.55007517 63.32291877 C446.70008486 63.21026485 431.85005934 63.10318952 417 63 C417.00577128 63.88839712 417.01154257 64.77679424 417.01748874 65.69211249 C417.58381899 153.05290032 418.13841066 240.41411128 418.56669617 356.02436829 C418.57185584 357.48590521 418.57701555 358.94744214 418.58217529 360.40897906 C418.69033423 391.09269286 418.79085054 421.77642787 418.88254809 452.46019523 C418.92862471 467.87559211 418.9761686 483.29098419 419.02510034 498.70637228 C419.0324726 501.03160347 419.03980295 503.3568348 419.04713157 505.68206613 C419.16023913 541.45190598 419.30465163 577.22127929 419.54058838 612.99053955 C419.54565363 613.75855112 419.55071889 614.52656268 419.55593764 615.31784733 C419.63778683 627.69904269 419.72228366 640.08021998 419.8071323 652.46139509 C420.05173348 688.15968096 420.27648285 723.85760462 420.37217236 759.55664539 C420.37415315 760.29207626 420.37613395 761.02750712 420.37817477 761.78522377 C420.42132636 777.93682081 420.45442746 794.08842229 420.47803637 810.24005923 C420.48771521 816.74073309 420.49883831 823.24140433 420.51045799 829.74207497 C420.5116948 830.45350745 420.5129316 831.16493993 420.51420589 831.89793097 C420.55465373 854.75207875 420.71225956 877.60354325 420.93244171 900.45661047 C421.1602293 924.15704228 421.25530763 947.85362161 421.19955096 971.55533399 C421.17397925 984.00401176 421.20761741 996.4454868 421.41060257 1008.89272308 C422.72389543 1092.48720159 422.72389543 1092.48720159 403.81152076 1112.5004347 C397.78102903 1118.23016325 391.29397071 1123.06062161 384.12450475 1127.26240951 C379.48816171 1130.07953197 376.3629684 1133.80357986 373 1138 C371.99544476 1139.16799937 370.98705183 1140.33272411 369.97265625 1141.4921875 C364.17406782 1148.22019368 358.45487213 1154.98799202 353 1162 C352.53513184 1162.59619141 352.07026367 1163.19238281 351.59130859 1163.80664062 C343.41106571 1174.32151606 335.54215698 1185.01846888 328 1196 C327.45762695 1196.78826172 326.91525391 1197.57652344 326.35644531 1198.38867188 C312.77150823 1218.22126899 300.3703826 1238.82144193 289 1260 C288.54592773 1260.84111328 288.09185547 1261.68222656 287.62402344 1262.54882812 C259.20867874 1315.38330947 238.66097135 1371.96077126 223.5625 1429.9375 C223.28857422 1430.96939453 223.01464844 1432.00128906 222.73242188 1433.06445312 C218.04760651 1451.0425661 214.43816998 1469.23508944 211.36962891 1487.55224609 C210.87483744 1490.5009688 210.36962565 1493.44777283 209.86328125 1496.39453125 C206.64104001 1515.32453677 204.09503252 1534.31191111 202.375 1553.4375 C202.25382813 1554.72591797 202.13265625 1556.01433594 202.0078125 1557.34179688 C200.68573645 1571.70500357 199.85145261 1585.9747181 199.84178162 1600.40124512 C199.83720016 1601.87935945 199.83219791 1603.35747252 199.82681805 1604.83558416 C199.8134075 1608.84699053 199.80586904 1612.85838857 199.79939139 1616.8698113 C199.7913111 1621.21450207 199.7776402 1625.55917591 199.76467896 1629.90385437 C199.74302325 1637.41464196 199.72483949 1644.92543135 199.70907402 1652.43623352 C199.68627523 1663.2953361 199.65814682 1674.15441985 199.62875474 1685.01350635 C199.58120081 1702.63546072 199.53790394 1720.25742284 199.49731445 1737.87939453 C199.4578972 1754.98845014 199.41644529 1772.09749885 199.37231445 1789.20654297 C199.36956495 1790.27346858 199.36681544 1791.3403942 199.36398262 1792.43965089 C199.34246104 1800.78481507 199.32082218 1809.12997894 199.29914629 1817.47514272 C199.19309351 1858.31674785 199.09726168 1899.15837115 199 1940 C133.33 1940 67.66 1940 0 1940 C0 1299.8 0 659.6 0 0 Z " fill="#2D534A" transform="translate(187,134)"/>
<path d="M0 0 C0.33 0 0.66 0 1 0 C2.0015405 4.17118534 2.16657889 8.21785997 2.19287109 12.48510742 C2.20091829 13.22581702 2.20896549 13.96652662 2.21725655 14.72968197 C2.24175963 17.18826544 2.25828407 19.64681078 2.2734375 22.10546875 C2.27971664 22.95792049 2.28599579 23.81037224 2.29246521 24.68865585 C2.33912551 31.18824618 2.36242414 37.6877607 2.375 44.1875 C2.37700661 45.14059429 2.37901321 46.09368858 2.38108063 47.07566452 C2.4315557 77.9835727 1.5493147 108.3728109 -3 139 C-3.12306519 139.83718567 -3.24613037 140.67437134 -3.3729248 141.53692627 C-4.98516555 152.41148745 -6.87688497 163.21383018 -9 174 C-9.22187988 175.14017578 -9.44375977 176.28035156 -9.67236328 177.45507812 C-11.02157661 184.32491641 -12.46711976 191.16890122 -14 198 C-14.29922363 199.33925537 -14.29922363 199.33925537 -14.60449219 200.70556641 C-25.63136434 249.59846896 -42.9845215 297.38928978 -65.93701172 341.93164062 C-66.68584085 343.38871008 -67.42915285 344.84862151 -68.16845703 346.31054688 C-83.31091207 376.25009227 -101.44075156 404.49247079 -122 431 C-122.45536133 431.59280762 -122.91072266 432.18561523 -123.37988281 432.79638672 C-132.80000361 445.0572314 -142.80714625 456.76148759 -153.33203125 468.0859375 C-155.3131191 470.24976112 -157.23273649 472.43395592 -159.140625 474.66015625 C-163.37825944 479.52024534 -167.92075647 484.07121711 -172.48803711 488.6184082 C-173.93524385 490.06025221 -175.37702026 491.50737116 -176.81835938 492.95507812 C-182.04294371 498.18341138 -187.3828476 503.19676317 -193 508 C-194.60768373 509.45445517 -196.21239715 510.91220895 -197.8125 512.375 C-202.07610017 516.21806298 -206.44552273 519.89322734 -210.91015625 523.5 C-213.15960665 525.32003572 -215.39473792 527.15218882 -217.62109375 529 C-231.84755711 540.76164171 -246.85924685 551.37924711 -262.13232422 561.73095703 C-263.87617142 562.91586131 -265.61241098 564.11114598 -267.34765625 565.30859375 C-285.35020578 577.63067631 -304.21970304 588.68355648 -323.48071289 598.90136719 C-354.89032599 615.59258146 -385.41186652 634.23968971 -412 658 C-413.0116315 658.88812023 -414.0233486 659.77614296 -415.03515625 660.6640625 C-463.88959287 704.30478454 -491.2093341 764.95086596 -505 828 C-505.19045898 828.86302734 -505.38091797 829.72605469 -505.57714844 830.61523438 C-507.99522161 841.78297197 -509.6500272 853.04893022 -511.125 864.375 C-511.28371582 865.559729 -511.44243164 866.74445801 -511.60595703 867.96508789 C-514.70087928 892.9311195 -515.30658487 918.02098846 -515.31664422 943.14485137 C-515.32050901 947.1793979 -515.33587377 951.21390652 -515.3496151 955.2484293 C-515.37447751 963.02765021 -515.38967339 970.80685781 -515.40119901 978.58610869 C-515.41500944 987.61248887 -515.44133734 996.63880596 -515.4675293 1005.66516113 C-515.53045987 1029.42258206 -515.57674061 1053.18004474 -515.625 1076.9375 C-515.74875 1130.088125 -515.8725 1183.23875 -516 1238 C-660.21 1238 -804.42 1238 -953 1238 C-953.04125 1185.035 -953.0825 1132.07 -953.125 1077.5 C-953.14320801 1060.84466797 -953.16141602 1044.18933594 -953.18017578 1027.02929688 C-953.18920898 1006.51660156 -953.18920898 1006.51660156 -953.19088745 996.88000488 C-953.1927328 990.22341451 -953.20002747 983.56685899 -953.21115112 976.91027832 C-953.35853432 885.7079942 -953.35853432 885.7079942 -948.25390625 842.20703125 C-948.11088829 840.97917656 -948.11088829 840.97917656 -947.96498108 839.72651672 C-942.2348836 791.84654724 -931.69248743 744.88833706 -917 699 C-916.66742187 697.95166992 -916.33484375 696.90333984 -915.9921875 695.82324219 C-908.50337885 672.2989459 -899.50143304 649.34177781 -889 627 C-888.55043945 626.03529785 -888.10087891 625.0705957 -887.63769531 624.07666016 C-866.31759191 578.42681112 -839.35284217 535.65780555 -807 497 C-806.20650146 496.04988037 -806.20650146 496.04988037 -805.39697266 495.08056641 C-800.08212066 488.7381872 -794.73241104 482.54532446 -788.78515625 476.78125 C-786.96608032 474.96615454 -785.29483496 473.07766083 -783.625 471.125 C-777.71799901 464.27610819 -771.26099091 457.97579041 -764.38671875 452.10546875 C-761.73689242 449.76789692 -759.17093052 447.35327514 -756.60180664 444.92773438 C-750.28528616 438.96772246 -743.91044327 433.27233191 -737 428 C-735.59814453 426.90558594 -735.59814453 426.90558594 -734.16796875 425.7890625 C-730.79663624 423.16832855 -727.4027079 420.57975156 -724 418 C-723.31292969 417.47631836 -722.62585938 416.95263672 -721.91796875 416.41308594 C-709.37809294 406.88567586 -696.422901 398.23173686 -683 390 C-682.11473633 389.4548877 -681.22947266 388.90977539 -680.31738281 388.34814453 C-639.04838167 363.06575499 -594.82495377 343.85578095 -548.875 328.9375 C-548.05640503 328.67155029 -547.23781006 328.40560059 -546.39440918 328.1315918 C-530.42041117 322.96735101 -514.30748114 318.48669229 -498 314.5 C-490.17388587 312.56888093 -482.3737679 310.59694873 -474.625 308.375 C-468.06763513 306.49895633 -461.46909175 304.92201486 -454.8125 303.4375 C-439.11958929 299.93528855 -423.73941978 295.52920675 -408.32250977 290.97485352 C-405.9687909 290.28425175 -403.61219536 289.60341979 -401.25366211 288.92944336 C-389.15209633 285.45655046 -377.22755595 281.50005548 -365.3125 277.4375 C-364.27953796 277.08551544 -363.24657593 276.73353088 -362.18231201 276.37088013 C-334.03089725 266.75138987 -306.83857186 255.46711042 -279.89050293 242.88275146 C-278.0843863 242.03940334 -276.27708477 241.1985942 -274.46972656 240.35791016 C-226.26939874 217.86583444 -179.84628865 189.17085047 -139 155 C-138.42942871 154.52320801 -137.85885742 154.04641602 -137.27099609 153.55517578 C-134.03410138 150.84400364 -130.81573016 148.11193494 -127.60644531 145.36816406 C-125.97045158 143.97483444 -124.32587632 142.59220031 -122.6796875 141.2109375 C-110.03503442 130.55584042 -98.09312268 119.16034373 -86.375 107.5 C-85.417146 106.54915527 -85.417146 106.54915527 -84.43994141 105.57910156 C-80.69982043 101.82617533 -77.15998677 97.95105731 -73.69677734 93.94189453 C-71.08329033 90.95086206 -68.34989156 88.07662703 -65.625 85.1875 C-61.03318837 80.27540542 -56.63407143 75.27506724 -52.4296875 70.0234375 C-50.55958976 67.69633838 -48.67019091 65.39354747 -46.7578125 63.1015625 C-39.3677819 54.23496035 -32.25272326 45.223205 -25.41601562 35.92333984 C-24.03980144 34.05406133 -22.65396861 32.1923118 -21.265625 30.33203125 C-15.34308267 22.36311238 -9.68344573 14.23769344 -4.15063477 5.99291992 C-3.62397217 5.21279541 -3.09730957 4.4326709 -2.5546875 3.62890625 C-1.85061768 2.5781189 -1.85061768 2.5781189 -1.13232422 1.50610352 C-0.57182373 0.76058228 -0.57182373 0.76058228 0 0 Z " fill="#A1B3A7" transform="translate(1403,836)"/>
<path d="M0 0 C0.82822266 0.12858398 1.65644531 0.25716797 2.50976562 0.38964844 C37.80113112 6.07853549 71.48109141 23.59552711 99 46 C99.54640137 46.4434375 100.09280273 46.886875 100.65576172 47.34375 C111.01073413 55.79825922 120.45167347 64.75623378 128.796875 75.24609375 C130.21200991 77.01501239 131.65792428 78.75997457 133.140625 80.47265625 C161.16142294 113.07959199 179.86021612 161.65696791 180.23828125 204.74609375 C180.2480751 205.66632828 180.25786896 206.58656281 180.26795959 207.53468323 C180.59471993 246.19102091 180.59471993 246.19102091 176 265 C175.78569336 265.88864746 175.57138672 266.77729492 175.35058594 267.69287109 C173.81020848 273.87792383 171.99148089 279.94635072 170 286 C169.70609375 286.8981543 169.4121875 287.79630859 169.109375 288.72167969 C161.02260578 313.02481983 149.50384138 335.33011558 133 355 C132.40960937 355.7734375 131.81921875 356.546875 131.2109375 357.34375 C114.39972738 379.04427621 92.97328253 396.77253655 69 410 C67.93628174 410.60038086 67.93628174 410.60038086 66.85107422 411.21289062 C33.50860428 429.96128011 -2.39481432 438.22251217 -40.4375 438.25 C-41.28037567 438.25067474 -42.12325134 438.25134949 -42.9916687 438.25204468 C-55.89127377 438.23567093 -68.34441984 437.68904844 -81 435 C-81.84691406 434.82839355 -82.69382812 434.65678711 -83.56640625 434.47998047 C-123.53717818 426.24594258 -159.67170017 407.30590928 -189.3828125 379.4296875 C-191.48061379 377.48217645 -193.60309773 375.62911965 -195.8125 373.8125 C-199.6373654 370.55495913 -202.80612157 366.86881123 -206 363 C-206.43473633 362.47760742 -206.86947266 361.95521484 -207.31738281 361.41699219 C-228.63725164 335.70306226 -244.5937577 306.58520443 -253.0625 274.125 C-253.31926514 273.14265381 -253.57603027 272.16030762 -253.84057617 271.14819336 C-256.16557569 261.92276656 -257.62454835 252.65021226 -258.73413086 243.20849609 C-258.97576561 241.20130787 -259.26273537 239.19970766 -259.5546875 237.19921875 C-262.0317949 217.10047321 -259.49670619 196.79385466 -256 177 C-255.85046875 176.10990234 -255.7009375 175.21980469 -255.546875 174.30273438 C-248.83147602 134.91194497 -228.73652558 97.68339087 -201.51953125 68.70703125 C-199.44272275 66.47566956 -197.45920403 64.2082764 -195.5 61.875 C-163.84257183 25.67379979 -112.92730054 3.68910662 -66 -2 C-64.88347046 -2.14139404 -64.88347046 -2.14139404 -63.74438477 -2.28564453 C-42.66453678 -4.70205692 -20.87709088 -3.38045422 0 0 Z " fill="#D08454" transform="translate(980,606)"/>
<path d="M0 0 C1.53212793 4.59638379 -0.4847701 7.85460883 -2.1875 12.25 C-2.54263672 13.17224365 -2.89777344 14.0944873 -3.26367188 15.04467773 C-11.08780808 34.73244178 -21.54220072 52.67289634 -35 69 C-36.11761719 70.41345703 -36.11761719 70.41345703 -37.2578125 71.85546875 C-41.49132795 77.17247714 -45.65590327 81.79294513 -51 86 C-51 85.01 -51 84.02 -51 83 C-50.34 83 -49.68 83 -49 83 C-48.773125 82.278125 -48.54625 81.55625 -48.3125 80.8125 C-47.03768402 78.08075146 -45.70094737 76.59028718 -43.53515625 74.55078125 C-40.02247266 71.00234516 -37.06956037 66.92903727 -34 63 C-33.15767372 61.93740357 -32.31522166 60.87490683 -31.47265625 59.8125 C-23.34135802 49.49112314 -17.31795026 39.031391 -12 27 C-11.34 27 -10.68 27 -10 27 C-9.67 25.02 -9.34 23.04 -9 21 C-8.34 21 -7.68 21 -7 21 C-6.855625 19.906875 -6.71125 18.81375 -6.5625 17.6875 C-6 14 -6 14 -5 11 C-4.34 11 -3.68 11 -3 11 C-2.86722656 10.37351562 -2.73445313 9.74703125 -2.59765625 9.1015625 C-2.42105469 8.28429687 -2.24445313 7.46703125 -2.0625 6.625 C-1.88847656 5.81289063 -1.71445313 5.00078125 -1.53515625 4.1640625 C-1 2 -1 2 0 0 Z " fill="#C38A67" transform="translate(1148,892)"/>
<path d="M0 0 C2 1 2 1 2.61393738 2.80073547 C2.9949697 4.97134414 3.1466865 6.98596617 3.17700195 9.18823242 C3.18964584 10.00905807 3.20228973 10.82988373 3.21531677 11.67558289 C3.22289505 12.55994522 3.23047333 13.44430756 3.23828125 14.35546875 C3.25297203 15.74431023 3.25297203 15.74431023 3.26795959 17.16120911 C3.50038429 44.86516196 1.37668406 69.44591152 -7 96 C-7.33 96 -7.66 96 -8 96 C-7.58582822 90.92639566 -6.56472969 86.38518967 -5.125 81.5 C-0.49610652 64.83978285 0.25033288 47.56745572 0.75 30.375 C0.77323334 29.60466431 0.79646667 28.83432861 0.82040405 28.04064941 C0.88345321 25.82668698 0.93631446 23.61277175 0.984375 21.3984375 C1.01241211 20.11630371 1.04044922 18.83416992 1.06933594 17.51318359 C1.0044495 14.22545173 0.60929536 11.2245424 0 8 C-0.11196073 5.32189925 -0.04625299 2.68267314 0 0 Z " fill="#C18967" transform="translate(1157,796)"/>
<path d="M0 0 C-2.72141713 1.81427809 -4.43173289 2.54711782 -7.5078125 3.40234375 C-8.85190186 3.77613159 -8.85190186 3.77613159 -10.22314453 4.1574707 C-11.18075684 4.41488037 -12.13836914 4.67229004 -13.125 4.9375 C-14.60202393 5.33618286 -14.60202393 5.33618286 -16.10888672 5.74291992 C-34.22957827 10.52611364 -51.89370425 12.17752315 -70.59130859 12.13037109 C-73.12733902 12.12499504 -75.66319356 12.13035544 -78.19921875 12.13671875 C-86.20091508 12.1396586 -94.04952476 12.02429436 -102 11 C-102 10.67 -102 10.34 -102 10 C-87.95374545 8.7527233 -87.95374545 8.7527233 -81.125 9.4375 C-65.45046556 10.99870861 -50.51241243 9.37927241 -35 7 C-33.77555176 6.8158252 -33.77555176 6.8158252 -32.52636719 6.62792969 C-24.02651771 5.32660309 -15.88753987 3.58934345 -7.734375 0.76953125 C-5.01221301 0.00343709 -2.81058612 -0.1487354 0 0 Z " fill="#C38A67" transform="translate(1012,1032)"/>
<path d="M0 0 C0.99 0.33 1.98 0.66 3 1 C-9.95675527 11.53898754 -35.83340416 30 -53 30 C-53 29.34 -53 28.68 -53 28 C-52.2265625 27.68546875 -51.453125 27.3709375 -50.65625 27.046875 C-45.27211521 24.83458199 -39.97665797 22.57417082 -34.8046875 19.90234375 C-32.9999544 18.9999772 -31.17631079 18.20942164 -29.3125 17.4375 C-26.33438079 16.14510864 -23.77096495 14.67489437 -21 13 C-19.17025423 12.0141456 -17.3368301 11.03509122 -15.5 10.0625 C-11.65889057 7.99222462 -8.38862436 5.75325729 -5 3 C-4.01 3 -3.02 3 -2 3 C-2 2.34 -2 1.68 -2 1 C-1.34 0.67 -0.68 0.34 0 0 Z " fill="#C48B69" transform="translate(1066,1002)"/>
<path d="M0 0 C1.00306686 -0.00350464 1.00306686 -0.00350464 2.02639771 -0.00708008 C15.30855122 -0.02444676 28.30452141 1.244042 41.4375 3.25 C41.4375 3.58 41.4375 3.91 41.4375 4.25 C36.29405486 4.33868009 31.27493741 4.18084589 26.1484375 3.74609375 C17.98214325 3.14325955 9.86880487 3.17174566 1.6875 3.25 C-15.94068101 3.41694106 -15.94068101 3.41694106 -24.5625 2.25 C-24.5625 1.92 -24.5625 1.59 -24.5625 1.25 C-16.37612763 0.2241687 -8.24468334 0.02050789 0 0 Z " fill="#C48E6D" transform="translate(938.5625,602.75)"/>
<path d="M0 0 C21.98648487 2.85070668 42.37946679 12.06614688 62 22 C58.32510313 23.22496562 57.7097634 22.68171497 54.31640625 21.05078125 C52.93291992 20.39916016 52.93291992 20.39916016 51.52148438 19.734375 C50.54501953 19.26515625 49.56855469 18.7959375 48.5625 18.3125 C40.79558993 14.67349347 33.23261776 11.42756677 25 9 C23.54400391 8.505 23.54400391 8.505 22.05859375 8 C19.07860975 7.02570127 16.10909486 6.2366274 13.0625 5.5 C8.6762146 4.42391255 4.33089846 3.27958364 0 2 C0 1.34 0 0.68 0 0 Z " fill="#C38C6A" transform="translate(983,607)"/>
<path d="M0 0 C0.33 0.66 0.66 1.32 1 2 C-2.87382351 8.14698699 -7.72380447 13.06100928 -12.85375977 18.16943359 C-14.43856885 19.75106671 -16.00953815 21.34561802 -17.58007812 22.94140625 C-18.59293898 23.95653902 -19.6065845 24.97088962 -20.62109375 25.984375 C-21.98899048 27.35674316 -21.98899048 27.35674316 -23.38452148 28.75683594 C-25.90143924 30.91546941 -27.86509705 32.00537661 -31 33 C-25.68115947 26.52528241 -19.7708906 20.68944148 -13.8125 14.8125 C-11.83690234 12.8636211 -9.86473746 10.91135875 -7.89453125 8.95703125 C-7.02675049 8.10085205 -6.15896973 7.24467285 -5.26489258 6.36254883 C-3.31488785 4.32846499 -1.62319238 2.29755896 0 0 Z " fill="#40544D" transform="translate(1297,1348)"/>
<path d="M0 0 C3.00399441 3.53295864 5.20452862 7.02940792 7.25 11.1875 C7.77078125 12.23292969 8.2915625 13.27835938 8.828125 14.35546875 C10 17 10 17 10 19 C10.66 19 11.32 19 12 19 C12 19.99 12 20.98 12 22 C12.66 22 13.32 22 14 22 C14.24234375 22.51949219 14.4846875 23.03898438 14.734375 23.57421875 C16.3762471 26.9905757 17.88891895 29.86490143 20.3125 32.8125 C20.869375 33.534375 21.42625 34.25625 22 35 C21.67 35.99 21.34 36.98 21 38 C14.96565468 29.19818437 9.02978149 20.37915162 3.8125 11.0625 C3.43875244 10.39541016 3.06500488 9.72832031 2.67993164 9.04101562 C1.21799578 6.38533209 -0.03910746 3.88267761 -1 1 C-0.67 0.67 -0.34 0.34 0 0 Z " fill="#C38C69" transform="translate(743,919)"/>
<path d="M0 0 C0.33 0.99 0.66 1.98 1 3 C-7.50878881 12.32098409 -15.83766349 21.44283874 -26 29 C-26.66 28.67 -27.32 28.34 -28 28 C-26.94425781 27.05253906 -26.94425781 27.05253906 -25.8671875 26.0859375 C-19.89905061 20.69272227 -14.07219675 15.17936049 -8.375 9.5 C-7.77155762 8.90106934 -7.16811523 8.30213867 -6.54638672 7.68505859 C-5.98193848 7.11867676 -5.41749023 6.55229492 -4.8359375 5.96875 C-4.33626465 5.46794922 -3.8365918 4.96714844 -3.32177734 4.45117188 C-1.77682065 2.82794302 -1.77682065 2.82794302 0 0 Z " fill="#F9DFCB" transform="translate(1108,966)"/>
<path d="M0 0 C0 0.33 0 0.66 0 1 C-1.6228894 0.98428955 -1.6228894 0.98428955 -3.27856445 0.96826172 C-7.39197317 0.93135519 -11.50536821 0.90884989 -15.61889648 0.89013672 C-17.38064047 0.88023659 -19.14236877 0.86671304 -20.90405273 0.84912109 C-32.08515434 0.74047364 -42.97972241 1.21002277 -54.08276367 2.56689453 C-57.11269989 2.90189652 -59.96133552 3.09577128 -63 3 C-59.30363285 0.72311405 -55.48006536 0.35845642 -51.25 -0.0625 C-50.45231201 -0.14338867 -49.65462402 -0.22427734 -48.83276367 -0.30761719 C-41.05604776 -1.02143242 -33.26143534 -1.3842414 -25.45910645 -1.67086792 C-24.03848564 -1.72323741 -22.61798389 -1.7789532 -21.19763184 -1.83816528 C-13.8489424 -2.1351311 -7.05628091 -2.35511301 0 0 Z " fill="#FCDEC8" transform="translate(963,603)"/>
<path d="M0 0 C-7.28486056 2.74900398 -7.28486056 2.74900398 -10.8046875 3.984375 C-11.75601563 4.31953125 -12.70734375 4.6546875 -13.6875 5 C-14.57824219 5.309375 -15.46898437 5.61875 -16.38671875 5.9375 C-19.12392331 7.05038437 -21.47852874 8.46765894 -24 10 C-25.37963639 10.58168453 -26.77520602 11.12782881 -28.1875 11.625 C-30.20372943 12.34205291 -32.08422301 13.0421115 -34 14 C-34.66 13.34 -35.32 12.68 -36 12 C-5.78008683 -2.00697459 -5.78008683 -2.00697459 0 0 Z " fill="#C6906E" transform="translate(880,613)"/>
<path d="M0 0 C0.66 0.33 1.32 0.66 2 1 C0.12353479 3.47961474 -1.53650143 5.66291013 -4.0625 7.5 C-6.13643097 8.90647076 -6.13643097 8.90647076 -7.265625 11.23046875 C-9.33835694 14.54030422 -11.89878089 17.11733791 -14.6875 19.8125 C-15.45416992 20.56563477 -15.45416992 20.56563477 -16.23632812 21.33398438 C-17.48634362 22.56063509 -18.7425468 23.78097491 -20 25 C-20.66 24.67 -21.32 24.34 -22 24 C-21.28714844 23.2265625 -20.57429687 22.453125 -19.83984375 21.65625 C-14.97327891 16.36676459 -10.14530056 11.05707757 -5.4375 5.625 C-3.70450364 3.66596063 -1.88660743 1.81114313 0 0 Z " fill="#C58C69" transform="translate(792,660)"/>
<path d="M0 0 C3.4281489 1.53155726 6.10071425 3.56415175 9 5.9375 C12.59001329 8.87023741 12.59001329 8.87023741 16.3125 11.62890625 C16.869375 12.08136719 17.42625 12.53382813 18 13 C18 13.66 18 14.32 18 15 C18.61875 15.144375 19.2375 15.28875 19.875 15.4375 C22 16 22 16 24 17 C24 17.66 24 18.32 24 19 C24.99 19.33 25.98 19.66 27 20 C27 20.66 27 21.32 27 22 C16.92293369 17.42601245 7.81654253 8.75499495 0 1 C0 0.67 0 0.34 0 0 Z " fill="#C38C69" transform="translate(789,983)"/>
<path d="M0 0 C3.58368059 5.37552088 5.64500334 11.58395478 8.01953125 17.5703125 C8.87461714 19.68929029 9.76749427 21.7836699 10.6875 23.875 C11.69951945 26.28457012 12.49013926 28.45069629 13 31 C12.34 31.33 11.68 31.66 11 32 C9.33746719 28.17369986 7.69806802 24.33789494 6.0625 20.5 C5.35963867 18.88351562 5.35963867 18.88351562 4.64257812 17.234375 C2.1718233 11.40410462 0.36156658 6.33895457 0 0 Z " fill="#C48B67" transform="translate(730,887)"/>
<path d="M0 0 C2.25096006 4.23896028 3.35571832 8.56448767 4.5625 13.1875 C4.78357422 14.00025391 5.00464844 14.81300781 5.23242188 15.65039062 C6.66814049 21.10265133 7.4976358 26.38368117 8 32 C7.34 31.67 6.68 31.34 6 31 C5.40234375 28.78515625 5.40234375 28.78515625 4.9375 26.0625 C4.33194533 22.41227791 4.33194533 22.41227791 3 19 C2.960008 17.00039988 2.95653201 14.99952758 3 13 C2.34 13 1.68 13 1 13 C-0.10228696 8.59085217 -0.07654536 4.51617599 0 0 Z " fill="#C08C68" transform="translate(1149,755)"/>
<path d="M0 0 C1.32 0 2.64 0 4 0 C4.33 0.66 4.66 1.32 5 2 C6.98166034 3.0358679 8.98473831 4.03112419 11 5 C11.804375 5.495 12.60875 5.99 13.4375 6.5 C16.53437632 8.31280565 19.68265717 9.63403531 23 11 C23 11.99 23 12.98 23 14 C17.33470072 12.48865019 12.95588042 9.6348878 8.125 6.4375 C7.34125 5.93025391 6.5575 5.42300781 5.75 4.90039062 C1.53023071 2.13989695 1.53023071 2.13989695 0 1 C0 0.67 0 0.34 0 0 Z " fill="#C68D6A" transform="translate(816,1005)"/>
<path d="M0 0 C0.99 0.33 1.98 0.66 3 1 C2.34 6.94 1.68 12.88 1 19 C0.34 19 -0.32 19 -1 19 C-1.33 19.99 -1.66 20.98 -2 22 C-1.34 14.74 -0.68 7.48 0 0 Z " fill="#DCE1DC" transform="translate(1841,887)"/>
<path d="M0 0 C0 0.33 0 0.66 0 1 C-9.13466832 1.6888091 -17.88651147 2.30192693 -27 1 C-27 0.67 -27 0.34 -27 0 C-17.88651147 -1.30192693 -9.13466832 -0.6888091 0 0 Z " fill="#C9916E" transform="translate(937,1042)"/>
<path d="M0 0 C2 1 2 1 2.61889648 2.79199219 C3.00392085 5.02271632 3.11381451 7.06596839 3.09765625 9.328125 C3.09282227 10.52695312 3.09282227 10.52695312 3.08789062 11.75 C3.07951172 12.575 3.07113281 13.4 3.0625 14.25 C3.05798828 15.09046875 3.05347656 15.9309375 3.04882812 16.796875 C3.03707961 18.86461401 3.01914522 20.93231624 3 23 C2.67 23 2.34 23 2 23 C-0.29612756 7.25512528 -0.29612756 7.25512528 0 0 Z " fill="#C48E6B" transform="translate(1157,796)"/>
<path d="M0 0 C0 0.66 0 1.32 0 2 C-6.43013467 3.73955334 -12.34949576 4.24991456 -19 4 C-13.5018812 0.33458746 -6.52793043 -0.34357529 0 0 Z " fill="#C89371" transform="translate(911,605)"/>
<path d="M0 0 C0.99 0.33 1.98 0.66 3 1 C0.71287089 2.83925787 -1.57928535 4.67151494 -3.875 6.5 C-4.52597656 7.02464844 -5.17695312 7.54929687 -5.84765625 8.08984375 C-6.47285156 8.58613281 -7.09804687 9.08242188 -7.7421875 9.59375 C-8.3182373 10.05458984 -8.89428711 10.51542969 -9.48779297 10.99023438 C-11 12 -11 12 -13 12 C-11.61198929 8.64564078 -10.11371 6.88709697 -7 5 C-6.01 5 -5.02 5 -4 5 C-3.67 4.01 -3.34 3.02 -3 2 C-2.01 1.34 -1.02 0.68 0 0 Z " fill="#C68E6A" transform="translate(1082,990)"/>
<path d="M0 0 C0.66 0 1.32 0 2 0 C5.44419134 12.48519362 5.44419134 12.48519362 5 19 C3.45246253 16.0865925 2.33730669 13.21672747 1.375 10.0625 C1.11460937 9.22847656 0.85421875 8.39445313 0.5859375 7.53515625 C-0.01494131 4.93535395 -0.10462243 2.65836091 0 0 Z " fill="#C58D6D" transform="translate(725,868)"/>
<path d="M0 0 C0.66 0 1.32 0 2 0 C1.5464821 7.02952752 -0.12059087 12.5849443 -3 19 C-4.67641098 14.90913548 -3.2409319 11.28488982 -2.0625 7.25 C-1.86720703 6.55261719 -1.67191406 5.85523438 -1.47070312 5.13671875 C-0.9891754 3.42201027 -0.49574843 1.71065123 0 0 Z " fill="#D1DAD2" transform="translate(1823,992)"/>
<path d="M0 0 C0.33 0 0.66 0 1 0 C1.37634203 6.80203375 0.77471079 11.75690073 -2 18 C-2.33 18 -2.66 18 -3 18 C-3.21586845 12.06361776 -2.71249434 6.71248111 -1 1 C-0.67 0.67 -0.34 0.34 0 0 Z " fill="#E5EBE3" transform="translate(1832,957)"/>
<path d="M0 0 C0.99 0.33 1.98 0.66 3 1 C1.61392377 2.46761013 0.21568805 3.92374189 -1.1875 5.375 C-1.96480469 6.18710938 -2.74210937 6.99921875 -3.54296875 7.8359375 C-5.987055 9.98859852 -7.92616557 11.00632706 -11 12 C-7.49102731 7.81576108 -3.91939465 3.80411834 0 0 Z " fill="#4E625B" transform="translate(1277,1369)"/>
<path d="M0 0 C0 3 0 3 -1.35546875 4.53515625 C-4.75531914 7.3695731 -7.68736476 9.69314084 -12 11 C-8.42270128 6.33867137 -4.89132699 3.26088466 0 0 Z " fill="#C58C68" transform="translate(806,649)"/>
<path d="M0 0 C0 0.66 0 1.32 0 2 C-7.45740945 4.53551921 -14.24374738 3.80612738 -22 3 C-22 2.67 -22 2.34 -22 2 C-19.08362234 1.66395648 -16.16694348 1.33106414 -13.25 1 C-12.0125 0.85691406 -12.0125 0.85691406 -10.75 0.7109375 C-9.55117188 0.57558594 -9.55117188 0.57558594 -8.328125 0.4375 C-7.22839355 0.31181641 -7.22839355 0.31181641 -6.10644531 0.18359375 C-4.07773478 0.00677521 -2.03640154 0 0 0 Z " fill="#F7D7C1" transform="translate(980,1041)"/>
<path d="M0 0 C0 0.99 0 1.98 0 3 C3.96 3.33 7.92 3.66 12 4 C12 4.33 12 4.66 12 5 C6.06 5 0.12 5 -6 5 C-2 1 -2 1 0 0 Z " fill="#505C56" transform="translate(1128,1482)"/>
<path d="M0 0 C1.72985242 0.11512153 3.45888751 0.24255677 5.1875 0.375 C6.15042969 0.44460938 7.11335937 0.51421875 8.10546875 0.5859375 C11.01508938 1.00215853 13.32890774 1.79874096 16 3 C16 3.66 16 4.32 16 5 C10.53135543 3.98408579 5.23609987 2.92908943 0 1 C0 0.67 0 0.34 0 0 Z " fill="#C89170" transform="translate(869,1032)"/>
<path d="M0 0 C1.37095624 3.69037278 0.60010967 5.70883835 -0.9375 9.25 C-1.31777344 10.14203125 -1.69804688 11.0340625 -2.08984375 11.953125 C-2.39019531 12.62859375 -2.69054688 13.3040625 -3 14 C-3.33 14 -3.66 14 -4 14 C-4 11.69 -4 9.38 -4 7 C-3.34 7 -2.68 7 -2 7 C-1.34 4.69 -0.68 2.38 0 0 Z " fill="#F3F7F0" transform="translate(1430,1113)"/>
<path d="M0 0 C4.31395349 8.01162791 4.31395349 8.01162791 3.625 12.375 C3.41875 12.91125 3.2125 13.4475 3 14 C2.34 13.67 1.68 13.34 1 13 C-0.29930238 8.71230214 -0.07516774 4.43489655 0 0 Z " fill="#C59375" transform="translate(1149,755)"/>
<path d="M0 0 C0.99 0.33 1.98 0.66 3 1 C0.03 4.3 -2.94 7.6 -6 11 C-6.33 10.01 -6.66 9.02 -7 8 C-6.34 7.01 -5.68 6.02 -5 5 C-4.34 5 -3.68 5 -3 5 C-2.690625 4.360625 -2.38125 3.72125 -2.0625 3.0625 C-1 1 -1 1 0 0 Z " fill="#FBE0CD" transform="translate(778,672)"/>
<path d="M0 0 C0 0.66 0 1.32 0 2 C-3.11505367 4.84804907 -6.01328937 6.63312778 -10 8 C-10.66 7.34 -11.32 6.68 -12 6 C-10.37829621 4.99466333 -8.75252763 3.99588093 -7.125 3 C-5.76761719 2.1646875 -5.76761719 2.1646875 -4.3828125 1.3125 C-2 0 -2 0 0 0 Z " fill="#C68D69" transform="translate(834,631)"/>
<path d="M0 0 C4.43915044 -0.39168975 7.22022332 0.68059158 11 3 C11.33 3.99 11.66 4.98 12 6 C7.76570244 4.68938409 3.92592596 3.05643741 0 1 C0 0.67 0 0.34 0 0 Z " fill="#C58E6C" transform="translate(839,1019)"/>
<path d="M0 0 C0.66 0.33 1.32 0.66 2 1 C1.56179109 5.55737263 1.14958831 8.57653445 -2 12 C-3.15957207 8.52128379 -2.77456651 7.65780355 -1.5625 4.3125 C-1.13130859 3.10013672 -1.13130859 3.10013672 -0.69140625 1.86328125 C-0.46324219 1.24839844 -0.23507812 0.63351562 0 0 Z " fill="#C68E6B" transform="translate(732,752)"/>
<path d="M0 0 C0.33 0 0.66 0 1 0 C1.66 5.28 2.32 10.56 3 16 C0.22278083 13.22278083 -0.18567376 10.82106929 -1 7 C-0.625 3.0625 -0.625 3.0625 0 0 Z " fill="#DAE1DB" transform="translate(1450,716)"/>
<path d="M0 0 C0.71484375 1.765625 0.71484375 1.765625 1 4 C-0.43359375 5.921875 -0.43359375 5.921875 -2.4375 7.75 C-3.42556641 8.67039062 -3.42556641 8.67039062 -4.43359375 9.609375 C-5.20896484 10.29773437 -5.20896484 10.29773437 -6 11 C-6 7.39426104 -5.18292538 6.58663434 -3 3.8125 C-2.443125 3.09707031 -1.88625 2.38164063 -1.3125 1.64453125 C-0.879375 1.10183594 -0.44625 0.55914063 0 0 Z " fill="#DDE4DB" transform="translate(539,1296)"/>
<path d="M0 0 C1.60407328 -0.02708567 3.2082785 -0.04643483 4.8125 -0.0625 C5.70582031 -0.07410156 6.59914063 -0.08570313 7.51953125 -0.09765625 C10 0 10 0 13 1 C13 1.66 13 2.32 13 3 C11.58249437 2.88490339 10.16598831 2.75746342 8.75 2.625 C7.96109375 2.55539062 7.1721875 2.48578125 6.359375 2.4140625 C3.914123 1.98492887 2.15163097 1.21399362 0 0 Z " fill="#CA926F" transform="translate(895,1039)"/>
<path d="M0 0 C-1.62170379 1.00533667 -3.24747237 2.00411907 -4.875 3 C-6.23238281 3.8353125 -6.23238281 3.8353125 -7.6171875 4.6875 C-10 6 -10 6 -12 6 C-10.90012224 2.70036671 -10.54413252 2.38935228 -7.6875 0.75 C-7.09324219 0.39421875 -6.49898437 0.0384375 -5.88671875 -0.328125 C-3.5508436 -1.15994803 -2.30725794 -0.7945524 0 0 Z " fill="#FCE1CD" transform="translate(831,633)"/>
<path d="M0 0 C0.66 0 1.32 0 2 0 C0.34908222 4.29238623 -2.73754566 6.8793915 -6 10 C-6.66 9.67 -7.32 9.34 -8 9 C-6.71520959 7.49410612 -5.42195918 5.99542625 -4.125 4.5 C-3.04605469 3.24703125 -3.04605469 3.24703125 -1.9453125 1.96875 C-1.30335937 1.3190625 -0.66140625 0.669375 0 0 Z " fill="#E6EAE3" transform="translate(1690,1248)"/>
<path d="M0 0 C3.42931954 3.7559214 4.56429083 8.23466745 6 13 C5.34 13 4.68 13 4 13 C-0.59225513 4.738041 -0.59225513 4.738041 0 0 Z " fill="#C69274" transform="translate(1139,730)"/>
<path d="M0 0 C3.17462943 2.40242227 5.85751741 4.61713276 8 8 C8 8.66 8 9.32 8 10 C7.34 10 6.68 10 6 10 C6 9.34 6 8.68 6 8 C5.34 8 4.68 8 4 8 C3.67 7.01 3.34 6.02 3 5 C2.01 4.34 1.02 3.68 0 3 C0 2.01 0 1.02 0 0 Z " fill="#C28D6B" transform="translate(1109,683)"/>
<path d="M0 0 C0.66 0.33 1.32 0.66 2 1 C-0.41556126 4.19199167 -2.68003538 6.74716687 -6 9 C-6.66 8.67 -7.32 8.34 -8 8 C-5.36 5.36 -2.72 2.72 0 0 Z " fill="#CA9676" transform="translate(792,660)"/>
<path d="M0 0 C0.33 0.99 0.66 1.98 1 3 C-0.21484375 5.04296875 -0.21484375 5.04296875 -1.9375 7.1875 C-2.50339844 7.90292969 -3.06929687 8.61835937 -3.65234375 9.35546875 C-4.09707031 9.89816406 -4.54179688 10.44085937 -5 11 C-5.66 10.67 -6.32 10.34 -7 10 C-3.535 5.05 -3.535 5.05 0 0 Z " fill="#E0E9E2" transform="translate(523,1317)"/>
<path d="M0 0 C1 3 1 3 0.00390625 5.04296875 C-0.47175781 5.75066406 -0.94742187 6.45835937 -1.4375 7.1875 C-1.91058594 7.90292969 -2.38367187 8.61835937 -2.87109375 9.35546875 C-3.24363281 9.89816406 -3.61617187 10.44085937 -4 11 C-4.65234375 9.234375 -4.65234375 9.234375 -5 7 C-4.00390625 5.078125 -4.00390625 5.078125 -2.5625 3.25 C-2.08941406 2.63640625 -1.61632813 2.0228125 -1.12890625 1.390625 C-0.75636719 0.93171875 -0.38382813 0.4728125 0 0 Z " fill="#3D524B" transform="translate(1419,710)"/>
<path d="M0 0 C0.80824219 0.10183594 1.61648438 0.20367188 2.44921875 0.30859375 C3.06410156 0.39238281 3.67898438 0.47617188 4.3125 0.5625 C4.3125 0.8925 4.3125 1.2225 4.3125 1.5625 C-2.1225 2.0575 -2.1225 2.0575 -8.6875 2.5625 C-6.80760684 -1.19728632 -3.63897564 -0.474649 0 0 Z " fill="#50625A" transform="translate(1210.6875,1479.4375)"/>
<path d="M0 0 C7.75 0.875 7.75 0.875 10 2 C10 2.66 10 3.32 10 4 C6.44219804 3.39009109 3.3171411 2.4216319 0 1 C0 0.67 0 0.34 0 0 Z " fill="#C7906E" transform="translate(856,1027)"/>
<path d="M0 0 C0 0.99 0 1.98 0 3 C-2.3125 4.75 -2.3125 4.75 -5 6 C-5.99 5.67 -6.98 5.34 -8 5 C-4.04 2.525 -4.04 2.525 0 0 Z " fill="#41554E" transform="translate(1167,1458)"/>
<path d="M0 0 C-2.40820361 2.40820361 -3.65022937 2.68097423 -7 3 C-9.3125 2.0625 -9.3125 2.0625 -11 1 C-7.32589215 -0.17571451 -3.83070817 -0.07366746 0 0 Z " fill="#D9DDD8" transform="translate(1333,1459)"/>
<path d="M0 0 C0.66 0.33 1.32 0.66 2 1 C-0.64 2.98 -3.28 4.96 -6 7 C-6 6.01 -6 5.02 -6 4 C-3 1.8125 -3 1.8125 0 0 Z " fill="#EBF2ED" transform="translate(1191,1440)"/>
<path d="M0 0 C1.98 0.495 1.98 0.495 4 1 C1.25 5.875 1.25 5.875 -1 7 C-0.67 4.69 -0.34 2.38 0 0 Z " fill="#455551" transform="translate(1374,774)"/>
<path d="M0 0 C0.33 0 0.66 0 1 0 C1.25 3.3125 1.25 3.3125 1 7 C-0.32 7.99 -1.64 8.98 -3 10 C-2.01 6.7 -1.02 3.4 0 0 Z " fill="#C99473" transform="translate(736,741)"/>
<path d="M0 0 C0.66 0 1.32 0 2 0 C3.2077558 3.62326739 2.54311128 4.64146369 1 8 C0.34 8 -0.32 8 -1 8 C-0.67 5.36 -0.34 2.72 0 0 Z " fill="#D8E0D9" transform="translate(407,1574)"/>
<path d="M0 0 C0 3 0 3 -1.3125 4.38671875 C-2.875 5.59114583 -4.4375 6.79557292 -6 8 C-4.73058503 4.08597051 -3.48832306 2.20927127 0 0 Z " fill="#394D44" transform="translate(1218,1422)"/>
<path d="M0 0 C0.66 0.33 1.32 0.66 2 1 C-2.39453125 5.00390625 -2.39453125 5.00390625 -4 6 C-4.99 5.67 -5.98 5.34 -7 5 C-4.69 3.35 -2.38 1.7 0 0 Z " fill="#FCE2CE" transform="translate(1065,1005)"/>
<path d="M0 0 C0.33 0.66 0.66 1.32 1 2 C-0.65 3.98 -2.3 5.96 -4 8 C-4.66 7.67 -5.32 7.34 -6 7 C-4.02 4.69 -2.04 2.38 0 0 Z " fill="#F9DFCB" transform="translate(1115,958)"/>
</svg>
