<?xml version="1.0" encoding="utf-8"?>
<!DOCTYPE svg PUBLIC "-//W3C//DTD SVG 1.0//EN" "http://www.w3.org/TR/2001/REC-SVG-20010904/DTD/svg10.dtd">
<svg version="1.0" xmlns="http://www.w3.org/2000/svg" width="281px" height="339px" viewBox="0 0 281 339" preserveAspectRatio="xMidYMid meet">
 <g fill="#fdfaf3">
  <path d="M0 169.57 l0 -169.57 140.50 0 140.50 0 0 169.57 0 169.57 -140.50 0 -140.50 0 0 -169.57z m134.57 145.89 c0.15 -4.48 0.82 -37.09 1.82 -88.27 0.33 -18.89 0.36 -19.47 0.97 -20.29 0.55 -0.73 0.88 -0.85 2.42 -0.94 0.97 -0.06 2.06 -0.03 2.45 0.09 1.45 0.36 1.51 0.85 1.88 16.65 0.21 8.18 0.64 25.53 0.94 38.61 0.33 13.08 0.73 30.46 0.91 38.61 0.18 8.18 0.39 16.11 0.48 17.65 l0.18 2.79 51.60 0 51.60 0 0 -8.18 0 -8.15 -31.25 -0.09 -31.28 -0.09 -2.66 -0.85 c-3.45 -1.06 -5.72 -2.24 -8.12 -4.15 -4.72 -3.79 -7.51 -8.60 -8.42 -14.53 -0.64 -4 -1.03 -12.17 -3.21 -63.59 -0.58 -13.90 -1.33 -31.22 -1.67 -38.46 -0.70 -15.50 -0.76 -22.89 -0.15 -27.28 1.27 -9.75 4.45 -17.80 9.90 -25.16 0.91 -1.21 4.06 -5 6.99 -8.39 13.32 -15.32 19.92 -26.16 25.44 -41.67 1.54 -4.39 3.54 -11.11 3.54 -11.99 0 -0.30 0.27 -0.85 0.61 -1.18 0.58 -0.58 1 -0.61 11.51 -0.61 l10.90 0 0 -8.33 0 -8.33 -91.75 0 -91.75 0 0 8.33 0 8.33 11.36 0 11.36 0 0.18 0.85 c3.15 13.84 8.96 27.16 17.17 39.27 4.03 5.93 6.78 9.45 12.69 16.08 6.24 6.99 8.66 10.45 11.48 16.29 3.06 6.36 4.51 11.93 5.18 19.86 0.36 4.21 0.24 8.48 -0.82 33.31 -0.24 5.57 -0.79 18.59 -1.21 28.92 -2.21 54.47 -2.63 62.47 -3.63 66.31 -2.24 8.69 -10.05 15.47 -19.38 16.81 -1.30 0.18 -13.75 0.30 -31.85 0.30 l-29.77 0 0 8.18 0 8.18 51.60 0 51.60 0 0.18 -4.91z m-40.85 -21.29 c2.48 -0.67 4.48 -1.82 6.48 -3.79 2.66 -2.60 4.15 -5.90 4.72 -10.51 l0.21 -1.60 -13.20 0 -13.20 0 0 -2.79 c0 -1.54 0.21 -8.12 0.45 -14.63 0.21 -6.48 0.70 -20.59 1.06 -31.34 0.36 -10.75 0.70 -20.11 0.79 -20.83 l0.15 -1.30 1.21 0.09 1.24 0.09 4.75 9.08 c4.21 7.99 8.02 15.17 15.90 29.77 1.18 2.21 2.18 3.75 2.21 3.48 0.03 -0.30 0.36 -7.69 0.70 -16.44 0.33 -8.75 0.67 -16.71 0.76 -17.71 0.18 -1.79 0.12 -1.94 -2.45 -7.57 -14.72 -32.40 -16.96 -38.76 -18.02 -50.72 -0.85 -9.96 0.58 -19.89 4.21 -28.83 l1.18 -2.94 -2.24 -2.66 c-1.21 -1.45 -3.42 -4.33 -4.91 -6.36 l-2.69 -3.72 -1.97 2.51 c-5.78 7.36 -12.38 11.87 -20.05 13.72 -2.97 0.73 -9.72 0.70 -13.17 0 -9.17 -1.94 -19.02 -7.81 -26.83 -15.99 -2.42 -2.51 -7.09 -8.18 -7.69 -9.33 -0.18 -0.33 -0.45 -0.61 -0.61 -0.61 -0.18 0 -7.93 4.06 -8.42 4.42 -0.15 0.09 2.18 3.82 4.51 7.24 6.24 9.14 12.02 14.81 25.16 24.65 3.60 2.69 7.72 5.93 9.14 7.18 7.93 6.93 13.26 16.32 15.47 27.22 1.79 8.78 1.76 8.02 1.91 48.60 0.06 20.56 0.03 41.51 -0.09 46.57 l-0.21 9.14 -6.03 0 -6.03 0 0 8.18 0 8.18 21.89 0 c18.68 0 22.13 -0.06 23.68 -0.45z m139.14 -7.72 l0 -8.18 -6.21 0 -6.21 0 0 -3.39 c0 -1.88 -0.15 -20.41 -0.33 -41.15 -0.36 -39.12 -0.27 -46.21 0.79 -54.41 1.70 -13.11 6.78 -23.65 15.20 -31.55 1.45 -1.36 3.21 -2.85 3.88 -3.30 0.67 -0.42 1.85 -1.33 2.60 -2 0.76 -0.67 1.79 -1.42 2.27 -1.67 0.48 -0.24 1.57 -0.97 2.39 -1.57 7.84 -5.81 15.56 -12.93 19.86 -18.26 4.39 -5.42 9.36 -12.99 8.87 -13.47 -0.15 -0.12 -2.03 -1.21 -4.18 -2.36 l-3.91 -2.12 -1.94 2.60 c-6.27 8.54 -13.75 15.05 -22.20 19.41 -6.93 3.57 -10.84 4.57 -17.80 4.57 -4.97 0 -7.87 -0.55 -11.60 -2.12 -5.21 -2.21 -10.90 -6.93 -14.99 -12.41 l-1.57 -2.12 -2.63 3.48 c-1.42 1.91 -3.69 4.78 -5.03 6.36 l-2.42 2.88 1.36 3.42 c2.97 7.54 4.09 13.72 4.12 22.68 0 14.60 -1.94 20.92 -15.75 51.11 l-4.91 10.75 0.33 7.87 c0.42 9.78 1.24 28.37 1.24 28.77 0 0.18 1 -1.54 2.21 -3.79 7.06 -13.02 8.96 -16.56 12.38 -23.01 2.09 -3.91 4.84 -9.11 6.12 -11.57 l2.33 -4.48 1.21 0 c0.91 0 1.18 0.12 1.18 0.55 0 0.27 0.15 3.51 0.30 7.18 0.15 3.66 0.70 17.90 1.21 31.64 0.48 13.75 0.97 26.43 1.09 28.25 l0.18 3.24 -13.38 0 -13.38 0 0.21 1.60 c0.94 7.42 4.97 12.63 11.08 14.26 1.36 0.36 5.42 0.45 23.83 0.45 l22.17 0.03 0 -8.18z m-173.44 -166.84 c5.27 -1.60 9.24 -6 10.20 -11.29 0.64 -3.48 -0.85 -7.63 -3.91 -10.90 -2.91 -3.12 -6.51 -4.66 -10.36 -4.39 -7.30 0.55 -13.63 8.63 -12.20 15.53 1.12 5.36 5.30 9.72 10.66 11.20 2.09 0.58 3.39 0.55 5.60 -0.15z m167.42 0.12 c6.93 -2.03 11.78 -8.93 10.57 -15.11 -0.73 -3.72 -2.69 -6.81 -5.84 -9.11 -5.06 -3.72 -11.36 -3.21 -16.35 1.36 -2.36 2.18 -4.15 5.75 -4.39 8.75 -0.27 3.79 1.21 7.36 4.30 10.33 2.03 1.91 4.12 3.12 6.63 3.82 2.09 0.55 3.12 0.55 5.09 -0.03z m22.98 -87.93 l0 -8.48 -109.46 0 -109.46 0 0 8.27 c0 4.57 0.09 8.39 0.21 8.48 0.09 0.12 49.36 0.21 109.46 0.21 l109.25 0 0 -8.48z"/>
  <path d="M132.69 119.43 c-14.78 -2.69 -30.34 -14.78 -40.48 -31.49 -4.69 -7.66 -8.93 -17.50 -8.93 -20.62 l0 -1.30 6.36 0 6.36 0 0 6.15 0 6.18 2 3.15 c1.09 1.73 3.09 4.69 4.45 6.57 2 2.79 2.48 3.33 2.66 2.85 0.36 -0.94 1.45 -8.18 1.79 -11.87 0.21 -2.09 0.24 -5.42 0.12 -8.24 l-0.21 -4.78 33.40 0 33.40 0 -0.21 4.18 c-0.24 4.88 0.15 10.45 1.21 16.68 0.39 2.39 0.79 4.42 0.85 4.48 0.21 0.21 4.94 -6.30 6.87 -9.54 l1.94 -3.18 0.15 -6.24 0.15 -6.24 6.63 -0.09 6.63 -0.06 -0.15 1.30 c-0.21 1.85 -3.24 9.24 -5.93 14.60 -6.90 13.50 -16.47 24.22 -27.92 31.22 -5.27 3.21 -10.17 5.18 -15.50 6.21 -3.57 0.70 -12.11 0.76 -15.62 0.09z m10.23 -9.81 c7.66 -1.45 13.75 -10.20 12.20 -17.59 -1.48 -7.21 -8.15 -12.99 -15.02 -12.99 -1.73 0 -5.42 1.18 -7.27 2.30 -1.88 1.15 -4.33 3.66 -5.51 5.57 -1.27 2.12 -2.27 5.36 -2.27 7.39 0 6.69 5.42 13.29 12.41 15.14 2.03 0.55 3.33 0.58 5.45 0.18z"/>
 </g>
 <g fill="#204f3b">
  <path d="M30.28 312.19 l0 -9.08 29.77 0 c18.11 0 30.55 -0.12 31.85 -0.30 9.33 -1.33 17.14 -8.12 19.38 -16.81 1 -3.85 1.42 -11.81 3.63 -66.31 0.42 -10.33 0.97 -23.41 1.21 -29.07 1.12 -25.83 1.15 -27.77 0.82 -31.67 -0.70 -7.78 -2.15 -13.26 -5.18 -19.53 -2.82 -5.84 -5.24 -9.30 -11.48 -16.29 -5.90 -6.63 -8.66 -10.14 -12.69 -16.08 -8.21 -12.11 -14.02 -25.44 -17.17 -39.27 l-0.18 -0.85 -11.36 0 -11.36 0 0 -9.24 0 -9.24 92.66 0 92.66 0 0 9.24 0 9.24 -10.90 0 c-10.51 0 -10.93 0.03 -11.51 0.61 -0.33 0.33 -0.61 0.88 -0.61 1.18 0 0.88 -2 7.60 -3.54 11.99 -5.51 15.50 -12.11 26.34 -25.44 41.67 -2.94 3.39 -6.09 7.18 -6.99 8.39 -6.93 9.36 -10.33 20.20 -10.36 32.91 0 2.51 0.27 10.48 0.61 17.71 0.33 7.24 1.09 24.56 1.67 38.46 2.18 51.42 2.57 59.59 3.21 63.59 0.91 5.93 3.69 10.75 8.42 14.53 2.39 1.91 4.66 3.09 8.12 4.15 l2.66 0.85 31.28 0.09 31.25 0.09 0 9.05 0 9.08 -52.51 0 -52.51 0 -0.18 -2.79 c-0.09 -1.54 -0.30 -9.48 -0.48 -17.65 -0.18 -8.15 -0.58 -25.53 -0.91 -38.61 -0.30 -13.08 -0.73 -30.43 -0.94 -38.61 -0.36 -15.87 -0.42 -16.29 -1.91 -16.68 -1.27 -0.30 -2.36 0 -3.03 0.88 -0.61 0.82 -0.64 1.42 -0.97 20.29 -1 51.17 -1.67 83.79 -1.82 88.27 l-0.18 4.91 -52.51 0 -52.51 0 0 -9.08z m117.12 -193.76 c11.32 -2.21 23.38 -9.99 32.82 -21.23 6.18 -7.33 12.63 -18.93 16.02 -28.71 l0.55 -1.57 -5.66 0.06 -5.66 0.09 -0.15 6.24 -0.15 6.24 -1.91 3.15 c-2.45 4.06 -7.69 11.17 -8.24 11.17 -0.12 0 -0.51 -1.54 -0.88 -3.39 -1.30 -6.93 -1.64 -10.23 -1.67 -16.96 l-0.03 -6.60 -32.25 0 -32.28 0 0 6.90 c0 5.57 -0.12 7.69 -0.70 11.26 -0.79 5.21 -1.54 8.78 -1.85 8.78 -0.36 0 -5.36 -6.90 -7.93 -10.93 l-2.36 -3.69 0 -6.15 0 -6.18 -5.45 0 c-4.30 0 -5.45 0.09 -5.45 0.39 0 0.21 0.39 1.54 0.88 2.97 4.30 12.48 12.93 25.77 22.13 34.07 8.39 7.60 17.71 12.60 26.40 14.17 3.45 0.64 10.26 0.61 13.81 -0.09z"/>
  <path d="M136.56 110.34 c-4.33 -1.15 -8.24 -4.15 -10.39 -7.99 -3.57 -6.48 -2.42 -14.44 2.88 -19.56 2.09 -2.03 3.63 -2.97 6.42 -3.91 9.05 -3.03 18.65 2.82 20.62 12.54 0.61 2.97 0.36 5.93 -0.79 8.93 -1.85 5 -6.69 9.27 -11.48 10.17 -2.21 0.42 -5.30 0.33 -7.27 -0.18z"/>
  <path d="M47.24 286.45 l0 -9.08 6.03 0 6.03 0 0.21 -9.14 c0.12 -5.06 0.15 -25.59 0.09 -45.66 -0.15 -39.58 -0.12 -38.91 -1.91 -47.69 -2.21 -10.90 -7.54 -20.29 -15.47 -27.22 -1.42 -1.24 -5.54 -4.48 -9.14 -7.18 -13.78 -10.30 -19.20 -15.72 -26.04 -26.01 -3 -4.48 -4.54 -7.15 -4.30 -7.36 0.58 -0.45 10.05 -5.36 10.36 -5.36 0.24 0 0.67 0.42 0.97 0.94 2 3.39 8.72 10.84 13.05 14.44 12.41 10.39 25.89 14.08 36.70 10.05 6.87 -2.54 13.87 -8.51 18.77 -15.93 0.36 -0.55 0.42 -0.55 0.91 0.18 3.33 4.66 6.30 8.54 8.36 11.05 l2.54 3 -1 2.15 c-3.91 8.45 -5.78 19.14 -5 28.58 0.97 12.14 3.39 18.96 18.05 51.05 l2.60 5.75 -0.18 3.18 c-0.30 5.75 -1.36 32.49 -1.36 35.03 0 1.36 -0.12 2.54 -0.24 2.63 -0.12 0.06 -1.54 -2.27 -3.15 -5.21 -5.21 -9.60 -11.75 -21.83 -16.62 -31.10 -2.60 -5 -4.91 -9.11 -5.06 -9.17 -0.51 -0.15 -0.61 1.48 -1.27 22.04 -0.36 10.75 -0.85 24.86 -1.06 31.34 -0.24 6.51 -0.45 12.66 -0.45 13.72 l0 1.88 13.17 0 13.17 0 0 1.45 c-0.06 7.96 -4.63 14.50 -11.36 16.26 -1.54 0.39 -5.09 0.45 -24.59 0.45 l-22.80 0 0 -9.08z"/>
  <path d="M185.95 295.05 c-6.60 -1.79 -11.17 -8.36 -11.23 -16.23 l0 -1.45 13.32 0 13.32 0 -0.15 -2.18 c-0.09 -1.21 -0.58 -13.50 -1.06 -27.34 -0.51 -13.81 -1.06 -28.13 -1.21 -31.79 -0.15 -3.66 -0.30 -6.90 -0.30 -7.18 0 -1.21 -0.67 -0.33 -2.76 3.63 -4.30 8.21 -10.57 20.02 -13.72 25.80 -1.76 3.24 -4.39 8.12 -5.84 10.81 -1.45 2.73 -2.73 4.81 -2.85 4.69 -0.18 -0.18 -0.55 -7.57 -1.54 -32.61 l-0.33 -8.48 4.94 -10.75 c13.54 -29.58 15.75 -36.64 15.75 -50.20 -0.03 -8.90 -1.51 -16.02 -5.18 -24.35 l-0.91 -2.06 2.30 -2.63 c1.27 -1.48 3.91 -4.75 5.84 -7.33 3.24 -4.33 3.54 -4.63 3.91 -4.09 4.69 6.57 7.93 9.87 12.72 12.96 4.72 3.03 9.39 4.42 14.99 4.42 6 0 10.26 -1.15 16.90 -4.57 8.48 -4.36 15.96 -10.90 22.29 -19.50 1.09 -1.51 2.18 -2.76 2.42 -2.82 0.33 -0.09 9.69 4.66 10.36 5.27 0.42 0.33 -6.21 10.23 -9.90 14.81 -3.60 4.48 -11.05 11.51 -17.05 16.14 -2.85 2.18 -4.36 3.27 -5.21 3.69 -0.48 0.24 -1.51 1 -2.27 1.67 -0.76 0.67 -1.94 1.57 -2.60 2 -0.67 0.45 -2.42 1.94 -3.88 3.30 -8.42 7.90 -13.50 18.44 -15.17 31.52 -1.06 8.18 -1.18 15.14 -0.82 52.93 0.18 20.08 0.33 38.24 0.33 40.39 l0 3.85 6.21 0 6.21 0 0 9.08 0 9.08 -23.07 -0.03 c-19.20 0 -23.38 -0.09 -24.74 -0.45z"/>
  <path d="M52.90 120.67 c-7.24 -2 -11.93 -9.08 -10.81 -16.26 0.73 -4.84 3.69 -8.87 8.05 -11.02 2.12 -1.06 2.60 -1.18 5.27 -1.27 4.84 -0.21 8.12 1.06 11.20 4.39 4.27 4.57 5.30 10.63 2.76 16.29 -2.76 6.03 -10.20 9.60 -16.47 7.87z"/>
  <path d="M220.83 120.67 c-2.51 -0.70 -4.60 -1.91 -6.63 -3.82 -3.27 -3.15 -4.51 -6.36 -4.30 -11.17 0.09 -2.76 0.21 -3.15 1.39 -5.54 1.57 -3.15 3.72 -5.27 7.03 -6.84 2 -0.94 2.60 -1.09 5.21 -1.18 2.36 -0.12 3.33 0 5.03 0.51 5.03 1.51 8.87 6.03 9.81 11.48 1.73 10.11 -7.84 19.17 -17.53 16.56z"/>
  <path d="M30.19 40.97 c-0.12 -0.09 -0.21 -4.33 -0.21 -9.39 l0 -9.17 110.37 0 110.37 0 0 9.39 0 9.39 -110.16 0 c-60.59 0 -110.28 -0.09 -110.37 -0.21z"/>
 </g>
</svg>